<svg width="57" height="56" viewBox="0 0 57 56" fill="none" xmlns="http://www.w3.org/2000/svg">
<g clip-path="url(#clip0_1982_908)">
<path d="M31.1001 23H34.1001C34.7567 23 35.4069 23.1293 36.0135 23.3806C36.6201 23.6319 37.1713 24.0002 37.6356 24.4645C38.0999 24.9288 38.4682 25.48 38.7195 26.0866C38.9708 26.6932 39.1001 27.3434 39.1001 28C39.1001 28.6566 38.9708 29.3068 38.7195 29.9134C38.4682 30.52 38.0999 31.0712 37.6356 31.5355C37.1713 31.9998 36.6201 32.3681 36.0135 32.6194C35.4069 32.8707 34.7567 33 34.1001 33H31.1001M25.1001 33H22.1001C21.4435 33 20.7933 32.8707 20.1867 32.6194C19.5801 32.3681 19.0289 31.9998 18.5646 31.5355C17.6269 30.5979 17.1001 29.3261 17.1001 28C17.1001 26.6739 17.6269 25.4021 18.5646 24.4645C19.5022 23.5268 20.774 23 22.1001 23H25.1001" stroke="#141414" stroke-width="2" stroke-linecap="round" stroke-linejoin="round"/>
<path d="M24.1001 28H32.1001" stroke="#005AE2" stroke-width="2" stroke-linecap="round" stroke-linejoin="round"/>
</g>
<circle cx="28.1001" cy="28" r="28" fill="#3284FF" fill-opacity="0.13"/>
<defs>
<clipPath id="clip0_1982_908">
<rect width="24" height="24" fill="white" transform="translate(16.1001 16)"/>
</clipPath>
</defs>
</svg>
