<svg width="384" height="80" viewBox="0 0 384 80" fill="none" xmlns="http://www.w3.org/2000/svg">
<path d="M49.9999 23.3334L59.9999 23.3334C62.1886 23.3334 64.3559 23.7645 66.378 24.602C68.4001 25.4396 70.2374 26.6673 71.785 28.2149C73.3327 29.7626 74.5603 31.5999 75.3979 33.622C76.2355 35.6441 76.6666 37.8113 76.6666 40C76.6666 42.1887 76.2355 44.356 75.3979 46.3781C74.5603 48.4002 73.3327 50.2375 71.785 51.7852C70.2374 53.3328 68.4001 54.5605 66.378 55.398C64.3559 56.2356 62.1886 56.6667 59.9999 56.6667H49.9999M29.9999 56.6667H19.9999C17.8112 56.6667 15.644 56.2356 13.6219 55.398C11.5998 54.5605 9.76245 53.3328 8.21481 51.7852C5.0892 48.6595 3.33325 44.4203 3.33325 40C3.33325 35.5798 5.0892 31.3405 8.21481 28.2149C11.3404 25.0893 15.5796 23.3334 19.9999 23.3334H29.9999" stroke="#141414" stroke-width="2" stroke-linecap="round" stroke-linejoin="round"/>
<path d="M26.6667 40H53.3334" stroke="#141414" stroke-width="2" stroke-linecap="round" stroke-linejoin="round"/>
<path d="M122 23.3334L132 23.3334C134.189 23.3334 136.356 23.7645 138.378 24.602C140.4 25.4396 142.237 26.6673 143.785 28.2149C145.333 29.7626 146.56 31.5999 147.398 33.622C148.235 35.6441 148.667 37.8113 148.667 40C148.667 42.1887 148.235 44.356 147.398 46.3781C146.56 48.4002 145.333 50.2375 143.785 51.7852C142.237 53.3328 140.4 54.5605 138.378 55.398C136.356 56.2356 134.189 56.6667 132 56.6667H122M102 56.6667H91.9999C89.8112 56.6667 87.644 56.2356 85.6219 55.398C83.5998 54.5605 81.7624 53.3328 80.2148 51.7852C77.0892 48.6595 75.3333 44.4203 75.3333 40C75.3333 35.5798 77.0892 31.3405 80.2148 28.2149C83.3404 25.0893 87.5796 23.3334 91.9999 23.3334H102" stroke="#141414" stroke-width="2" stroke-linecap="round" stroke-linejoin="round"/>
<path d="M98.6667 40H125.333" stroke="#141414" stroke-width="2" stroke-linecap="round" stroke-linejoin="round"/>
<path d="M194 23.3334L204 23.3334C206.189 23.3334 208.356 23.7645 210.378 24.602C212.4 25.4396 214.237 26.6673 215.785 28.2149C217.333 29.7626 218.56 31.5999 219.398 33.622C220.235 35.6441 220.667 37.8113 220.667 40C220.667 42.1887 220.235 44.356 219.398 46.3781C218.56 48.4002 217.333 50.2375 215.785 51.7852C214.237 53.3328 212.4 54.5605 210.378 55.398C208.356 56.2356 206.189 56.6667 204 56.6667H194M174 56.6667H164C161.811 56.6667 159.644 56.2356 157.622 55.398C155.6 54.5605 153.762 53.3328 152.215 51.7852C149.089 48.6595 147.333 44.4203 147.333 40C147.333 35.5798 149.089 31.3405 152.215 28.2149C155.34 25.0893 159.58 23.3334 164 23.3334H174" stroke="#141414" stroke-width="2" stroke-linecap="round" stroke-linejoin="round"/>
<path d="M170.667 40H197.333" stroke="#141414" stroke-width="2" stroke-linecap="round" stroke-linejoin="round"/>
<path d="M244 39C243.448 39 243 39.4477 243 40C243 40.5523 243.448 41 244 41V39ZM284 40L274 34.2265V45.7735L284 40ZM244 41H275V39H244V41Z" fill="#005AE2"/>
<path d="M354 23.3334L364 23.3334C366.189 23.3334 368.356 23.7645 370.378 24.602C372.4 25.4396 374.237 26.6673 375.785 28.2149C377.333 29.7626 378.56 31.5999 379.398 33.622C380.235 35.6441 380.667 37.8113 380.667 40C380.667 42.1887 380.235 44.356 379.398 46.3781C378.56 48.4002 377.333 50.2375 375.785 51.7852C374.237 53.3328 372.4 54.5605 370.378 55.398C368.356 56.2356 366.189 56.6667 364 56.6667H354M334 56.6667H324C321.811 56.6667 319.644 56.2356 317.622 55.398C315.6 54.5605 313.762 53.3328 312.215 51.7852C309.089 48.6595 307.333 44.4203 307.333 40C307.333 35.5798 309.089 31.3405 312.215 28.2149C315.34 25.0893 319.58 23.3334 324 23.3334H334" stroke="#141414" stroke-width="2" stroke-linecap="round" stroke-linejoin="round"/>
<path d="M330.667 40H357.333" stroke="#141414" stroke-width="2" stroke-linecap="round" stroke-linejoin="round"/>
</svg>
